<?xml version="1.0" standalone="yes"?>
<svg xmlns="http://www.w3.org/2000/svg" width="322" height="384">
<path style="fill:#151316; stroke:none;" d="M116 22C117.913 29.0247 123.817 35.4572 127.222 42C134.275 55.5488 141.212 73.616 142 89C135.414 81.7127 132.222 72.8543 124 66.5293C101.068 48.8888 72.6323 55.0526 48 64L48 67C65.0827 70.3599 80.5782 78.0475 95 87.6667C101.935 92.2925 109.118 97.1362 114 104C104.228 102.808 95.0104 98.7783 85 98.0895C66.0648 96.7867 43.5493 105.482 32.3333 121.09C29.0044 125.722 25.627 130.227 25 136C30.7591 135.294 35.4835 132.125 41 130.609C49.3928 128.302 58.365 128 67 128C63.1883 133.175 57.5484 136.393 53.0934 141C41.3234 153.172 30.0499 170.604 30 188C37.3591 184.304 42.694 175.762 49 170.439C65.0638 156.879 87.41 144.06 109 144L109 146C100.491 146.566 91.913 152.372 85 157.001C63.2684 171.553 45.5568 197.024 45 224C51.5783 222.166 55.2773 214.676 60.0394 210.17C69.9225 200.818 81.3235 190.313 94 185C89.9668 204.551 89.4347 224.166 91 244L94 244C95.5203 237.269 98.9189 231.285 101.786 225.075C110.766 205.627 125.328 178.388 148 173C148.004 212.805 148.462 252.327 143.715 292C141.922 306.979 140.152 322.139 137.676 337C135.862 347.886 132.031 358.94 132 370L186 370C185.979 362.429 183.774 355.41 182.464 348C180.116 334.72 178.033 321.383 176.289 308C170.564 264.054 168 219.388 168 175C175.588 177.423 182.497 184.128 187.714 190.004C197.396 200.911 204.925 212.904 211.532 225.834C214.799 232.228 218.734 238.875 220 246L223 246C223.006 237.306 224.608 228.729 223.907 220C222.993 208.632 219.901 197.226 218 186C230.864 193.134 242.119 202.321 253 212.17C258.078 216.766 262.243 224.088 269 226C264.893 193.505 246.852 167.824 217 153.616C209.97 150.27 201.894 146.233 194 146L194 144C216.161 144.457 238.354 154.423 256 167.282C264.089 173.177 271.062 182.832 280 187C279.839 172.42 270.618 155.518 260.907 145.001C255.964 139.648 249.412 135.739 245 130C256.932 130.008 271.547 133.376 282.039 139.224C288.424 142.782 294.724 149.847 302 151C300.995 145.093 298.329 140.197 295.463 135.001C280.214 107.353 247.842 97.3295 218 100.104C210.296 100.82 203.387 104.33 196 106C200.195 100.061 206.095 95.7477 212 91.5903C230.476 78.5829 252.496 72 275 72C271.457 65.0654 261.137 60.9269 253.996 58.4946C232.189 51.0671 206.641 52.9479 188.04 67.3712C179.21 74.2179 175.632 84.4721 168 92C168.169 86.1579 170.246 80.661 171.549 75C173.954 64.558 176.551 54.2105 180.696 44.2855C183.839 36.7596 188.253 29.6442 191 22C178.523 24.26 168.453 38.1549 162.39 48.4244C160.014 52.4479 159.472 56.6929 156 60C153.61 42.0125 132.797 25.4967 116 22z"/>
</svg>
